<?xml version="1.0" encoding="iso-8859-1"?>
<!-- Uploaded to: SVG Repo, www.svgrepo.com, Generator: SVG Repo Mixer Tools -->
<svg fill="#000000" height="800px" width="800px" version="1.1" id="Layer_1" xmlns="http://www.w3.org/2000/svg" xmlns:xlink="http://www.w3.org/1999/xlink" 
	 viewBox="0 0 512 512" xml:space="preserve">
<g transform="translate(-1)">
	<g>
		<g>
			<path d="M385,298.667h-64v-85.333c0-11.782-9.551-21.333-21.333-21.333h-85.333C202.551,192,193,201.551,193,213.333v85.333h-64
				c-17.58,0-27.614,20.07-17.067,34.133l128,170.667c8.533,11.378,25.6,11.378,34.133,0l128-170.667
				C412.614,318.736,402.58,298.667,385,298.667z M257,455.111l-85.333-113.778h42.667c11.782,0,21.333-9.551,21.333-21.333v-85.333
				h42.667V320c0,11.782,9.551,21.333,21.333,21.333h42.667L257,455.111z"/>
			<path d="M214.333,170.667h85.333c11.782,0,21.333-9.551,21.333-21.333c0-11.782-9.551-21.333-21.333-21.333h-85.333
				C202.551,128,193,137.551,193,149.333C193,161.115,202.551,170.667,214.333,170.667z"/>
			<path d="M214.333,106.667h85.333c11.782,0,21.333-9.551,21.333-21.333C321,73.551,311.449,64,299.667,64h-85.333
				C202.551,64,193,73.551,193,85.333C193,97.115,202.551,106.667,214.333,106.667z"/>
			<path d="M214.333,42.667h85.333c11.782,0,21.333-9.551,21.333-21.333C321,9.551,311.449,0,299.667,0h-85.333
				C202.551,0,193,9.551,193,21.333C193,33.115,202.551,42.667,214.333,42.667z"/>
		</g>
	</g>
</g>
</svg>